<?xml version="1.0" encoding="iso-8859-1"?>
<!-- Uploaded to: SVG Repo, www.svgrepo.com, Generator: SVG Repo Mixer Tools -->
<svg fill="#732d4d" height="700px" width="700px" version="1.1" id="Layer_1" xmlns="http://www.w3.org/2000/svg" xmlns:xlink="http://www.w3.org/1999/xlink" 
	 viewBox="0 0 472.615 472.615" xml:space="preserve">
<g>
	<g>
		<polygon points="472.615,403.692 472.615,344.593 0,344.593 0,403.692 147.692,403.692 147.692,452.923 108.308,452.923 
			108.308,472.615 364.308,472.615 364.308,452.923 324.923,452.923 324.923,403.692 		"/>
	</g>
</g>
<g>
	<g>
		<path d="M0,0v324.9h472.615V0H0z M236.308,285.517C103.045,228.862,118.723,97.971,118.723,97.971
			c86.229-25.397,117.585-58.608,117.585-58.608s31.356,33.211,117.585,58.608C353.892,97.971,369.57,228.862,236.308,285.517z"/>
	</g>
</g>
<g>
	<g>
		<path d="M236.308,100.753c-16.154,10.015-38.259,21.48-67.509,32.414c4.24,28.153,19.124,69.581,67.509,97.48
			c48.462-27.937,63.318-69.437,67.539-97.466C274.577,122.243,252.471,110.771,236.308,100.753z"/>
	</g>
</g>
</svg>