<!DOCTYPE svg PUBLIC "-//W3C//DTD SVG 1.1//EN" "http://www.w3.org/Graphics/SVG/1.1/DTD/svg11.dtd">
<!-- Uploaded to: SVG Repo, www.svgrepo.com, Transformed by: SVG Repo Mixer Tools -->
<svg fill="#6c2946" height="800px" width="800px" version="1.1" id="Layer_1" xmlns="http://www.w3.org/2000/svg" xmlns:xlink="http://www.w3.org/1999/xlink" viewBox="0 0 512 512" xml:space="preserve" stroke="#6c2946">
<g id="SVGRepo_bgCarrier" stroke-width="0"/>
<g id="SVGRepo_tracerCarrier" stroke-linecap="round" stroke-linejoin="round"/>
<g id="SVGRepo_iconCarrier"> <g> <g> <path d="M501.801,47.923H10.199C4.567,47.923,0,52.489,0,58.122v322.581c0,5.633,4.567,10.199,10.199,10.199h179.845v52.775 h-36.179c-5.632,0-10.199,4.566-10.199,10.199c0,5.633,4.567,10.199,10.199,10.199h204.27v0.001 c5.632,0,10.199-4.566,10.199-10.199c0-5.633-4.567-10.199-10.199-10.199h-36.179v-52.775h54.008l39.938,39.937 c6.296,6.297,14.667,9.765,23.573,9.765s17.276-3.468,23.573-9.765c10.803-10.803,12.618-27.233,5.465-39.938h33.287 c5.632,0,10.199-4.566,10.199-10.199V58.122C512,52.489,507.433,47.923,501.801,47.923z M301.558,443.679h-91.116v-52.775h91.116 V443.679z M448.624,416.417c-2.444,2.444-5.693,3.79-9.15,3.79s-6.705-1.346-9.15-3.79l-71.297-71.297l18.298-18.299 l71.297,71.298C453.67,403.163,453.67,411.372,448.624,416.417z M491.602,370.504h-41.742l-65.32-65.32 c-3.984-3.982-10.44-3.982-14.425,0l-9.149,9.149l-17.397-17.397c17.667-20.926,28.333-47.943,28.333-77.409 c0-66.26-53.907-120.167-120.167-120.167c-66.259,0.001-120.166,53.908-120.166,120.168s53.907,120.167,120.166,120.167 c29.466,0,56.484-10.667,77.409-28.333l17.397,17.397l-9.15,9.15c-1.912,1.912-2.987,4.507-2.987,7.212s1.075,5.3,2.987,7.212 l18.173,18.172H20.398V68.321h471.203V370.504z M251.736,319.297c-55.012,0-99.768-44.756-99.768-99.769 c0-55.013,44.756-99.769,99.768-99.769c55.012,0,99.769,44.756,99.769,99.769S306.749,319.297,251.736,319.297z"/> </g> </g> <g> <g> <path d="M234.763,142.709c-1.916-5.296-7.764-8.035-13.062-6.116c-21.864,7.919-40.053,24.562-49.907,45.662 c-2.384,5.104-0.179,11.173,4.925,13.557c1.396,0.652,2.864,0.96,4.309,0.96c3.84,0,7.517-2.179,9.248-5.886 c7.578-16.228,21.564-29.026,38.37-35.113C233.943,153.854,236.682,148.006,234.763,142.709z"/> </g> </g> <g> <g> <path d="M174.797,203.117c-5.615-0.44-10.527,3.751-10.969,9.367c-0.185,2.337-0.277,4.707-0.277,7.046 c0,5.633,4.567,10.199,10.199,10.199c5.632,0,10.199-4.566,10.199-10.199c0-1.806,0.071-3.637,0.214-5.442 C184.606,208.471,180.413,203.56,174.797,203.117z"/> </g> </g> </g>
</svg>